<svg width="19" height="37" viewBox="0 0 19 37" fill="none" xmlns="http://www.w3.org/2000/svg">
<path d="M18.75 25.3898C18.75 28.5905 17.8375 31.3141 16.0125 33.5607C14.1875 35.8073 11.975 36.9307 9.375 36.9307C6.775 36.9307 4.5625 35.8073 2.7375 33.5607C0.9125 31.3141 0 28.5905 0 25.3898V8.3094C0 6.00123 0.65625 4.03929 1.96875 2.42357C3.28125 0.807858 4.875 0 6.75 0C8.625 0 10.2188 0.807858 11.5312 2.42357C12.8438 4.03929 13.5 6.00123 13.5 8.3094V24.4666C13.5 25.8822 13.1 27.0825 12.3 28.0673C11.5 29.0521 10.525 29.5445 9.375 29.5445C8.225 29.5445 7.25 29.0521 6.45 28.0673C5.65 27.0825 5.25 25.8822 5.25 24.4666V7.38613H8.25V24.4666C8.25 24.8666 8.35625 25.1975 8.56875 25.4591C8.78125 25.7207 9.05 25.8515 9.375 25.8515C9.7 25.8515 9.96875 25.7207 10.1813 25.4591C10.3938 25.1975 10.5 24.8666 10.5 24.4666V8.3094C10.475 7.01682 10.1063 5.92429 9.39375 5.0318C8.68125 4.13931 7.8 3.69307 6.75 3.69307C5.7 3.69307 4.8125 4.13931 4.0875 5.0318C3.3625 5.92429 3 7.01682 3 8.3094V25.3898C2.975 27.5749 3.5875 29.4291 4.8375 30.9525C6.0875 32.4759 7.6 33.2376 9.375 33.2376C11.125 33.2376 12.6125 32.4759 13.8375 30.9525C15.0625 29.4291 15.7 27.5749 15.75 25.3898V7.38613H18.75V25.3898Z" fill="#2852A7" style="fill:#2852A7;fill:color(display-p3 0.1568 0.3206 0.6533);fill-opacity:1;"/>
</svg>
