<svg width="48" height="50" viewBox="0 0 48 50" fill="none" xmlns="http://www.w3.org/2000/svg">
<path d="M47.9167 33.3333C47.9167 33.8859 47.6972 34.4158 47.3065 34.8065C46.9158 35.1972 46.3859 35.4167 45.8333 35.4167H39.5833V39.5833H43.75C44.3025 39.5833 44.8324 39.8028 45.2231 40.1935C45.6138 40.5842 45.8333 41.1141 45.8333 41.6667C45.8333 42.2192 45.6138 42.7491 45.2231 43.1398C44.8324 43.5305 44.3025 43.75 43.75 43.75H39.5833V47.9167C39.5833 48.4692 39.3638 48.9991 38.9731 49.3898C38.5824 49.7805 38.0525 50 37.5 50C36.9475 50 36.4176 49.7805 36.0269 49.3898C35.6362 48.9991 35.4167 48.4692 35.4167 47.9167V33.3333C35.4167 32.7808 35.6362 32.2509 36.0269 31.8602C36.4176 31.4695 36.9475 31.25 37.5 31.25H45.8333C46.3859 31.25 46.9158 31.4695 47.3065 31.8602C47.6972 32.2509 47.9167 32.7808 47.9167 33.3333ZM13.5417 38.5417C13.5417 40.4755 12.7734 42.3302 11.406 43.6977C10.0385 45.0651 8.18387 45.8333 6.25 45.8333H4.16667V47.9167C4.16667 48.4692 3.94717 48.9991 3.55647 49.3898C3.16577 49.7805 2.63587 50 2.08333 50C1.5308 50 1.0009 49.7805 0.610195 49.3898C0.219494 48.9991 0 48.4692 0 47.9167V33.3333C0 32.7808 0.219494 32.2509 0.610195 31.8602C1.0009 31.4695 1.5308 31.25 2.08333 31.25H6.25C8.18387 31.25 10.0385 32.0182 11.406 33.3857C12.7734 34.7531 13.5417 36.6078 13.5417 38.5417ZM9.375 38.5417C9.375 37.7129 9.04576 36.918 8.45971 36.332C7.87366 35.7459 7.0788 35.4167 6.25 35.4167H4.16667V41.6667H6.25C7.0788 41.6667 7.87366 41.3374 8.45971 40.7514C9.04576 40.1653 9.375 39.3705 9.375 38.5417ZM32.2917 40.625C32.2917 43.1114 31.3039 45.496 29.5458 47.2541C27.7876 49.0123 25.4031 50 22.9167 50H18.75C18.1975 50 17.6676 49.7805 17.2769 49.3898C16.8862 48.9991 16.6667 48.4692 16.6667 47.9167V33.3333C16.6667 32.7808 16.8862 32.2509 17.2769 31.8602C17.6676 31.4695 18.1975 31.25 18.75 31.25H22.9167C25.4031 31.25 27.7876 32.2377 29.5458 33.9959C31.3039 35.754 32.2917 38.1386 32.2917 40.625ZM28.125 40.625C28.125 39.2437 27.5763 37.9189 26.5995 36.9422C25.6228 35.9654 24.298 35.4167 22.9167 35.4167H20.8333V45.8333H22.9167C24.298 45.8333 25.6228 45.2846 26.5995 44.3078C27.5763 43.3311 28.125 42.0063 28.125 40.625ZM0 22.9167V4.16667C0 3.0616 0.438987 2.00179 1.22039 1.22039C2.00179 0.438987 3.0616 6.44163e-07 4.16667 6.44163e-07H29.1667C29.4403 -0.000214554 29.7114 0.0534913 29.9643 0.15805C30.2172 0.262608 30.447 0.415971 30.6406 0.609376L45.224 15.1927C45.4174 15.3863 45.5707 15.6162 45.6753 15.8691C45.7798 16.122 45.8336 16.393 45.8333 16.6667V22.9167C45.8333 23.4692 45.6138 23.9991 45.2231 24.3898C44.8324 24.7805 44.3025 25 43.75 25C43.1975 25 42.6676 24.7805 42.2769 24.3898C41.8862 23.9991 41.6667 23.4692 41.6667 22.9167V18.75H29.1667C28.6141 18.75 28.0842 18.5305 27.6935 18.1398C27.3028 17.7491 27.0833 17.2192 27.0833 16.6667V4.16667H4.16667V22.9167C4.16667 23.4692 3.94717 23.9991 3.55647 24.3898C3.16577 24.7805 2.63587 25 2.08333 25C1.5308 25 1.0009 24.7805 0.610195 24.3898C0.219494 23.9991 0 23.4692 0 22.9167ZM31.25 14.5833H38.7214L31.25 7.11198V14.5833Z" fill="black" style="fill:black;fill-opacity:1;"/>
</svg>
